<svg xmlns="http://www.w3.org/2000/svg" xmlns:xlink="http://www.w3.org/1999/xlink" version="1.1" x="0px" y="0px" viewBox="0 0 64 80" style="enable-background:new 0 0 64 64;" xml:space="preserve"><g><path d="M49.2001953,19.1298828v0.0102539c0.1494141,0.199707,0.2900391,0.4099121,0.4296875,0.6098633l2.2304688-2.1499023   c0.3095703-0.3000488,0.4892578-0.7001953,0.4892578-1.1000977c0.0107422-0.3100586-0.109375-0.6098633-0.3193359-0.8200684   L49,12.6599121c-0.2099609-0.2099609-0.5195312-0.369873-0.8203125-0.3200684   c-0.3896484,0-0.7900391,0.1801758-1.0996094,0.4902344l-1.5205078,1.5698242   c0.1601562,0.2001953,0.3203125,0.4001465,0.4707031,0.5900879C47.1796875,16.3999023,48.2197266,17.7700195,49.2001953,19.1298828   z"/><path d="M39.3496094,21.9199219C39.1699219,21.7399902,39,21.5700684,38.8203125,21.3999023L5.8300781,55.5500488   c-0.7998047,0.8200684-0.8105469,1.869873-0.0097656,2.6699219l0.6494141,0.6501465   c0.4003906,0.3898926,0.8603516,0.5898438,1.3203125,0.5898438s0.9296875-0.1999512,1.3398438-0.6000977l34.0898438-32.9299316   c-0.1699219-0.1899414-0.3398438-0.3798828-0.5097656-0.5598145   C41.5595703,24.1201172,40.4296875,22.9699707,39.3496094,21.9199219z"/><path d="M58.7695312,43.9799805c-0.0097656-0.1401367-0.9892578-10.1298828-10.1494141-23.2600098   c-0.1396484-0.2099609-0.2802734-0.4099121-0.4296875-0.6101074c-0.9501953-1.3498535-2-2.7197266-3.1308594-4.119873   c-0.1591797-0.1899414-0.3095703-0.380127-0.4794922-0.5800781C41.7099609,11.9299316,38.25,8.3000488,34.0996094,4.6298828   l-0.2695312-0.2299805l-6.4599609,6.4599609l0.4599609,0.2402344c0.0898438,0.0400391,5.1201172,2.6999512,11.9697266,9.2797852   c0.1806641,0.170166,0.3603516,0.3400879,0.5400391,0.5200195c1.0898438,1.0600586,2.2197266,2.2202148,3.390625,3.4902344   c0.1699219,0.1799316,0.3398438,0.3598633,0.5097656,0.5498047c4.4101562,4.8701172,9.2402344,11.2001953,13.8300781,19.25   l0.8496094,1.4799805L58.7695312,43.9799805z"/></g><text x="0" y="79" fill="#000000" font-size="5px" font-weight="bold" font-family="'Helvetica Neue', Helvetica, Arial-Unicode, Arial, Sans-serif">Created by Icon Lauk</text><text x="0" y="84" fill="#000000" font-size="5px" font-weight="bold" font-family="'Helvetica Neue', Helvetica, Arial-Unicode, Arial, Sans-serif">from the Noun Project</text></svg>